<svg version="1.1" xmlns="http://www.w3.org/2000/svg" viewBox="0 0 250 250"><desc>Created with Snap</desc><defs></defs><g transform="matrix(0.0345,0,0,0.0345,59.7197,155.257)"><rect x="-1732.095881652832" y="-3296.2560668945307" width="7250.9439453125" height="4837.376098632812" fill="#421e86" style=""></rect><g transform="matrix(55.9397,0,0,55.9397,410.9751,-3492.513)"><title>screenshot</title><path d="M26,39H22a1,1,0,0,1,0-2h4a1,1,0,0,1,0,2Z" fill="#ffffff" style=""></path><path d="M26,11H22a1,1,0,0,1,0-2h4a1,1,0,0,1,0,2Z" fill="#ffffff" style=""></path><path d="M38,27a1,1,0,0,1-1-1V22a1,1,0,0,1,2,0v4A1,1,0,0,1,38,27Z" fill="#ffffff" style=""></path><path d="M10,27a1,1,0,0,1-1-1V22a1,1,0,0,1,2,0v4A1,1,0,0,1,10,27Z" fill="#ffffff" style=""></path><path d="M38,39H30a1,1,0,1,1,0-2h7V30a1,1,0,0,1,2,0v8A1,1,0,0,1,38,39Z" fill="#ffffff" style=""></path><path d="M38,18.92a1,1,0,0,1-1-1V11H29.76a1,1,0,0,1,0-2H38a1,1,0,0,1,1,1v7.92A1,1,0,0,1,38,18.92Z" fill="#ffffff" style=""></path><path d="M10,18.92a1,1,0,0,1-1-1V10a1,1,0,0,1,1-1h8.1a1,1,0,0,1,0,2H11v6.92A1,1,0,0,1,10,18.92Z" fill="#ffffff" style=""></path><path d="M18.07,39H10a1,1,0,0,1-1-1V30a1,1,0,1,1,2,0v7h7.07a1,1,0,0,1,0,2Z" fill="#ffffff" style=""></path><path d="M38,44a1,1,0,0,1-1-1V38a1,1,0,0,1,2,0v5A1,1,0,0,1,38,44Z" fill="#ffffff" style=""></path><path d="M43,39H38a1,1,0,0,1,0-2h5a1,1,0,0,1,0,2Z" fill="#ffffff" style=""></path><desc>Created with Snap</desc><defs></defs></g><g><g transform="matrix(1.024,0,0,-1.024,0,0)"><path d="M166 0L64 0L116 674L238 674L328 428Q352 365 376 294Q400 224 412 185L425 146Q471 282 526 428L620 674L742 674L804 0L702 0L678 264L657 534Q612 407 559 264L465 13L384 13L293 264L202 530Q202 486 186 264L166 0ZM1007 290L1252 290L1252 308Q1250 365 1221 398Q1192 432 1138 432Q1088 432 1052 395Q1016 359 1007 290ZM1315 115L1315 27Q1259 -5 1167 -5Q1049 -5 979 66Q909 137 909 252Q909 374 973 443Q1037 513 1136 513Q1233 513 1290 452Q1347 392 1347 278Q1347 247 1341 213L1008 213Q1018 147 1064 112Q1110 77 1180 77Q1261 77 1315 115ZM1462 707L1560 707L1560 420Q1603 514 1717 514Q1791 514 1836 468Q1881 422 1881 340L1881 0L1783 0L1783 320Q1783 372 1756 400Q1730 429 1687 429Q1637 429 1598 391Q1560 353 1560 275L1560 0L1462 0L1462 707ZM2013 507L2111 507L2111 426Q2154 514 2254 514Q2368 514 2400 416Q2421 463 2461 488Q2501 514 2551 514Q2629 514 2669 468Q2710 422 2710 341L2710 0L2612 0L2612 320Q2612 429 2524 429Q2480 429 2445 390Q2411 351 2411 275L2411 0L2313 0L2313 320Q2313 429 2224 429Q2181 429 2146 390Q2111 351 2111 275L2111 0L2013 0L2013 507ZM2913 290L3158 290L3158 308Q3156 365 3127 398Q3098 432 3044 432Q2994 432 2958 395Q2922 359 2913 290ZM3221 115L3221 27Q3165 -5 3073 -5Q2955 -5 2885 66Q2815 137 2815 252Q2815 374 2879 443Q2943 513 3042 513Q3139 513 3196 452Q3253 392 3253 278Q3253 247 3247 213L2914 213Q2924 147 2970 112Q3016 77 3086 77Q3167 77 3221 115ZM3628 431L3495 431L3495 152Q3495 79 3565 79Q3606 79 3634 101L3634 13Q3601 -5 3553 -5Q3396 -5 3396 154L3396 431L3317 431L3317 507L3396 507L3396 631L3495 631L3495 507L3628 507L3628 431Z" fill="#ffffff" style=""></path></g></g><g transform="matrix(1,0,0,1,-1456.6399,1036.288)"><g transform="matrix(1.024,0,0,-1.024,0,0)"><path d="M233 285L222 251L438 251L427 285Q389 403 365 480Q341 558 336 577L331 596Q320 549 233 285ZM629 0L519 0L466 165L194 165L140 0L31 0L264 674L399 674L629 0ZM934 79Q992 79 1032 123Q1072 167 1072 257Q1072 344 1030 386Q989 428 937 428Q878 428 840 381Q802 335 802 249Q802 173 839 126Q877 79 934 79ZM1072 430L1072 707L1171 707L1171 0L1072 0L1072 77Q1019 -7 917 -7Q817 -7 759 68Q701 144 701 251Q701 370 762 442Q823 514 919 514Q1018 514 1072 430ZM1551 0L1439 0L1259 507L1362 507L1431 293Q1455 219 1471 165Q1488 111 1492 94L1496 77Q1505 126 1562 293L1633 507L1735 507L1551 0ZM2090 169L2090 226L2014 226Q1958 226 1929 204Q1901 182 1901 148Q1901 113 1923 93Q1945 73 1987 73Q2035 73 2062 99Q2090 126 2090 169ZM1835 386L1835 481Q1894 515 1991 515Q2190 515 2190 322L2190 0L2093 0L2093 60Q2054 -4 1956 -4Q1884 -4 1840 37Q1797 79 1797 143Q1797 216 1852 256Q1907 297 2006 297L2090 297L2090 326Q2090 378 2065 404Q2040 431 1982 431Q1901 431 1835 386ZM2322 507L2420 507L2420 420Q2465 514 2578 514Q2653 514 2697 468Q2741 422 2741 343L2741 0L2643 0L2643 320Q2643 373 2616 401Q2590 429 2546 429Q2494 429 2457 388Q2420 348 2420 275L2420 0L2322 0L2322 507ZM2946 251Q2948 174 2993 124Q3038 75 3119 75Q3179 75 3231 108L3231 20Q3182 -10 3106 -10Q2987 -10 2916 65Q2845 140 2845 252Q2845 361 2916 438Q2988 516 3110 516Q3176 516 3231 488L3231 398Q3182 429 3120 429Q3041 429 2993 379Q2946 329 2946 251ZM3414 290L3659 290L3659 308Q3657 365 3628 398Q3599 432 3545 432Q3495 432 3459 395Q3423 359 3414 290ZM3722 115L3722 27Q3666 -5 3574 -5Q3456 -5 3386 66Q3316 137 3316 252Q3316 374 3380 443Q3444 513 3543 513Q3640 513 3697 452Q3754 392 3754 278Q3754 247 3748 213L3415 213Q3425 147 3471 112Q3517 77 3587 77Q3668 77 3722 115ZM4074 79Q4132 79 4172 123Q4212 167 4212 257Q4212 344 4170 386Q4129 428 4077 428Q4018 428 3980 381Q3942 335 3942 249Q3942 173 3979 126Q4017 79 4074 79ZM4212 430L4212 707L4311 707L4311 0L4212 0L4212 77Q4159 -7 4057 -7Q3957 -7 3899 68Q3841 144 3841 251Q3841 370 3902 442Q3963 514 4059 514Q4158 514 4212 430ZM4802 298L4802 85L4934 85Q5061 85 5061 190Q5061 241 5026 269Q4992 298 4924 298L4802 298ZM4912 589L4802 589L4802 382L4895 382Q4970 382 5006 412Q5043 443 5043 492Q5043 535 5010 562Q4978 589 4912 589ZM4699 0L4699 674L4920 674Q5026 674 5087 624Q5148 575 5148 494Q5148 438 5116 396Q5085 354 5036 342Q5091 332 5128 291Q5166 250 5166 181Q5166 101 5111 50Q5057 0 4958 0L4699 0ZM5379 0L5280 0L5280 707L5379 707L5379 0ZM5733 -9Q5621 -9 5557 64Q5493 137 5493 249Q5493 363 5559 438Q5625 514 5733 514Q5849 514 5912 440Q5975 367 5975 253Q5975 139 5910 65Q5846 -9 5733 -9ZM5732 431Q5667 431 5631 379Q5595 328 5595 252Q5595 177 5632 125Q5669 74 5733 74Q5801 74 5836 124Q5872 174 5872 251Q5872 330 5838 380Q5804 431 5732 431ZM6285 98Q6337 98 6375 138Q6414 179 6414 252Q6414 342 6377 385Q6341 428 6289 428Q6230 428 6196 381Q6162 335 6162 259Q6162 180 6198 139Q6235 98 6285 98ZM6414 428L6414 507L6512 507L6512 43Q6512 -74 6445 -134Q6379 -193 6275 -193Q6177 -193 6110 -160L6110 -61Q6174 -103 6265 -103Q6414 -103 6414 44L6414 96Q6365 14 6267 14Q6181 14 6120 77Q6059 141 6059 257Q6059 369 6116 441Q6173 514 6267 514Q6368 514 6414 428Z" fill="#ffffff" style=""></path></g></g></g></svg>