<?xml version="1.0" standalone="no"?>
<!DOCTYPE svg PUBLIC "-//W3C//DTD SVG 20010904//EN"
 "http://www.w3.org/TR/2001/REC-SVG-20010904/DTD/svg10.dtd">
<svg version="1.0" xmlns="http://www.w3.org/2000/svg"
 width="1200.000000pt" height="1200.000000pt" viewBox="0 0 1200.000000 1200.000000"
 preserveAspectRatio="xMidYMid meet">
<metadata>
Created by potrace 1.16, written by Peter Selinger 2001-2019
</metadata>
<g transform="translate(0.000000,1200.000000) scale(0.100000,-0.100000)"
fill="#000000" stroke="none">
<path d="M0 6000 l0 -6000 6000 0 6000 0 0 6000 0 6000 -6000 0 -6000 0 0
-6000z m3508 3247 c6 -6 58 -118 117 -247 101 -223 167 -367 257 -560 22 -47
47 -102 55 -122 8 -21 19 -38 24 -38 12 0 46 72 349 733 l114 247 320 -2 321
-3 3 -1062 2 -1063 -22 -5 c-13 -3 -147 -4 -298 -3 l-275 3 -5 540 c-4 413 -8
535 -16 520 -7 -11 -43 -90 -82 -175 -38 -85 -81 -180 -95 -210 -13 -30 -35
-77 -47 -105 -12 -27 -42 -92 -66 -142 l-43 -93 -159 0 -160 0 -20 48 c-11 26
-36 81 -55 122 -50 107 -227 499 -244 539 -8 18 -17 31 -19 28 -3 -3 -5 -241
-4 -530 1 -440 -1 -526 -13 -536 -11 -8 -93 -11 -298 -9 l-284 3 -3 1055 c-1
580 0 1061 3 1068 7 18 628 18 643 -1z m3009 1 c6 -7 43 -107 82 -223 40 -115
109 -313 153 -440 43 -126 88 -255 98 -285 10 -30 48 -140 85 -245 37 -104 71
-201 75 -215 5 -14 47 -137 95 -275 142 -407 146 -419 140 -432 -3 -10 -68
-13 -287 -13 -156 0 -288 4 -293 8 -11 8 -18 27 -70 197 -53 174 -58 189 -68
203 -7 9 -76 12 -283 12 l-274 0 -10 -22 c-5 -13 -21 -63 -36 -113 -14 -49
-32 -108 -39 -130 -7 -22 -18 -60 -25 -85 -7 -25 -17 -51 -22 -57 -8 -10 -80
-13 -299 -13 -158 0 -290 4 -293 9 -3 4 19 80 50 167 30 88 79 229 109 314 55
160 151 435 275 790 102 293 216 620 252 725 17 50 34 100 39 113 l9 22 264 0
c199 0 266 -3 273 -12z m2264 -2 c189 -58 317 -205 365 -421 26 -117 10 -243
-44 -358 -43 -89 -84 -141 -155 -193 -34 -25 -63 -50 -65 -54 -2 -5 7 -11 19
-15 80 -26 205 -122 258 -200 79 -115 111 -305 76 -453 -45 -190 -199 -330
-430 -390 -144 -37 -270 -43 -835 -40 l-535 3 -3 1068 -2 1067 652 0 c530 0
662 -3 699 -14z m-4911 -4096 l0 -480 -530 0 -530 0 0 480 0 480 530 0 530 0
0 -480z m1060 0 l0 -480 -525 0 -525 0 0 480 0 480 525 0 525 0 0 -480z m2130
0 l0 -480 -1060 0 -1060 0 0 480 0 480 1060 0 1060 0 0 -480z m1060 0 l0 -480
-525 0 -525 0 0 480 0 480 525 0 525 0 0 -480z m1070 0 l0 -480 -530 0 -530 0
0 480 0 480 530 0 530 0 0 -480z m-6390 -970 l0 -480 -525 0 -525 0 0 480 0
480 525 0 525 0 0 -480z m1070 0 l0 -480 -530 0 -530 0 0 480 0 480 530 0 530
0 0 -480z m1060 0 l0 -480 -525 0 -525 0 0 480 0 480 525 0 525 0 0 -480z
m2130 0 l0 -480 -1060 0 -1060 0 0 480 0 480 1060 0 1060 0 0 -480z m1060 0
l0 -480 -525 0 -525 0 0 480 0 480 525 0 525 0 0 -480z m1070 0 l0 -480 -530
0 -530 0 0 480 0 480 530 0 530 0 0 -480z m1060 0 l0 -480 -525 0 -525 0 0
480 0 480 525 0 525 0 0 -480z m-5322 -972 l-3 -483 -520 0 -520 0 -3 483 -2
482 525 0 525 0 -2 -482z m2132 -3 l0 -485 -1060 0 -1060 0 0 485 0 485 1060
0 1060 0 0 -485z m1058 3 l-3 -483 -520 0 -520 0 -3 483 -2 482 525 0 525 0
-2 -482z"/>
<path d="M6244 8549 c-6 -8 -18 -39 -27 -69 -8 -30 -45 -154 -82 -275 -37
-121 -70 -230 -72 -242 l-5 -23 186 0 c102 0 186 2 186 5 0 3 -111 392 -173
609 -2 4 -7 2 -13 -5z"/>
<path d="M8020 8595 l0 -155 225 0 c304 0 320 8 320 162 0 79 0 80 -37 114
l-38 34 -235 0 -235 0 0 -155z"/>
<path d="M8025 7958 c-3 -8 -4 -86 -3 -173 l3 -160 235 -3 c241 -3 296 3 334
36 33 30 49 75 49 137 0 66 -16 105 -58 145 l-27 25 -264 3 c-213 2 -265 0
-269 -10z"/>
<path d="M3100 5155 l0 -235 60 0 60 0 1 128 1 127 41 -88 c41 -86 43 -88 75
-85 31 3 35 9 67 78 31 67 59 103 54 69 -1 -8 -1 -62 0 -121 l1 -108 55 0 55
0 0 235 0 235 -60 0 c-69 0 -66 3 -126 -132 -22 -48 -43 -86 -48 -85 -5 2 -30
50 -56 107 l-47 105 -66 3 -67 3 0 -236z"/>
<path d="M4250 5155 l0 -235 159 0 159 0 4 45 c2 24 2 49 0 55 -2 6 -44 10
-103 10 l-99 0 0 40 0 40 85 0 85 0 0 50 0 50 -85 0 -85 0 0 35 0 35 100 0
100 0 0 55 0 55 -160 0 -160 0 0 -235z"/>
<path d="M5268 5380 c-1 -5 -2 -111 0 -235 l3 -225 54 0 54 0 3 93 3 92 83 3
82 3 0 -96 0 -95 60 0 60 0 0 235 0 235 -60 0 -60 0 0 -90 0 -91 -82 3 -83 3
-3 88 -3 87 -54 0 c-29 0 -55 -4 -57 -10z"/>
<path d="M6298 5155 l-3 -235 58 0 57 0 0 120 c0 66 4 120 9 120 4 0 24 -36
44 -80 35 -76 38 -80 69 -80 32 0 35 4 67 78 19 42 38 81 43 87 4 5 8 -48 8
-118 l0 -127 60 0 60 0 0 235 0 235 -65 0 -65 0 -51 -110 c-29 -60 -55 -110
-58 -110 -3 0 -24 40 -45 88 -61 136 -57 132 -126 132 l-59 0 -3 -235z"/>
<path d="M7447 5383 c-4 -3 -7 -109 -7 -235 l0 -228 165 0 165 0 0 55 0 55
-105 0 -105 0 0 40 0 40 85 0 85 0 0 50 0 50 -85 0 -85 0 0 35 0 35 100 0 100
0 0 55 0 55 -153 0 c-85 0 -157 -3 -160 -7z"/>
<path d="M8470 5335 l0 -55 65 0 65 0 0 -180 0 -180 60 0 60 0 0 180 0 180 65
0 65 0 0 55 0 55 -190 0 -190 0 0 -55z"/>
<path d="M2220 4406 c0 -2 -36 -107 -80 -232 -44 -126 -80 -230 -80 -231 0 -2
27 -3 59 -3 l59 0 15 43 14 42 68 0 68 0 15 -42 14 -43 59 0 c32 0 59 2 59 3
0 2 -36 106 -80 232 -44 126 -80 230 -80 232 0 1 -25 3 -55 3 -30 0 -55 -2
-55 -4z m79 -206 c7 -25 15 -53 17 -62 5 -15 -2 -18 -40 -18 -25 0 -46 4 -46
8 0 5 7 31 16 58 9 27 18 55 20 63 7 21 19 3 33 -49z"/>
<path d="M3150 4174 l0 -236 123 4 c131 5 177 19 224 70 57 61 73 191 33 274
-44 89 -125 124 -290 124 l-90 0 0 -236z m231 109 c33 -20 51 -57 51 -108 0
-81 -43 -125 -122 -125 l-40 0 0 125 0 125 41 0 c22 0 54 -8 70 -17z"/>
<path d="M4186 4403 c-1 -2 35 -107 82 -234 l86 -230 49 3 50 3 77 211 c43
116 81 221 85 233 6 21 4 22 -56 19 l-62 -3 -45 -153 c-25 -84 -48 -149 -52
-145 -4 4 -24 64 -44 133 -53 182 -46 171 -111 169 -30 -1 -57 -4 -59 -6z"/>
<path d="M5415 4400 c-3 -5 -35 -92 -70 -193 -35 -100 -70 -201 -79 -225 l-15
-43 61 3 61 3 15 43 14 42 68 0 67 0 13 -45 13 -45 58 0 c33 0 59 3 59 8 0 4
-35 108 -78 232 l-79 225 -50 3 c-29 2 -54 -2 -58 -8z m78 -206 c10 -37 16
-68 14 -70 -6 -6 -76 -8 -81 -3 -5 6 36 139 43 139 4 0 15 -30 24 -66z"/>
<path d="M6330 4175 l0 -235 60 0 59 0 3 117 3 117 95 -117 c93 -116 94 -117
136 -117 52 0 50 -14 46 263 l-3 207 -54 0 -55 0 0 -121 c0 -66 -4 -119 -9
-117 -5 2 -50 55 -100 119 -90 115 -91 115 -136 118 l-45 2 0 -236z"/>
<path d="M7546 4396 c-91 -34 -145 -102 -153 -193 -10 -108 40 -197 134 -240
71 -33 150 -28 218 11 39 23 74 62 63 71 -2 1 -22 14 -45 29 l-42 26 -25 -25
c-30 -30 -98 -34 -134 -9 -93 65 -53 234 56 234 36 0 92 -25 92 -40 0 -17 14
-11 59 21 l42 32 -28 29 c-15 16 -40 36 -55 44 -42 22 -136 27 -182 10z"/>
<path d="M8510 4175 l0 -235 160 0 160 0 0 55 0 55 -100 0 -100 0 0 40 0 40
85 0 85 0 0 50 0 50 -85 0 -85 0 0 35 0 35 101 0 100 0 -3 53 -3 52 -157 3
-158 3 0 -236z"/>
<path d="M9538 4404 c-5 -4 -8 -111 -8 -237 l0 -229 123 4 c133 5 174 17 220
64 41 41 59 80 64 143 10 106 -33 188 -121 233 -32 17 -65 22 -156 26 -63 2
-118 1 -122 -4z m242 -129 c50 -45 50 -147 0 -197 -24 -23 -37 -28 -79 -28
l-51 0 0 126 0 126 55 -4 c34 -3 62 -12 75 -23z"/>
<path d="M4220 3203 l0 -235 148 4 c114 3 154 8 179 21 37 20 63 63 63 104 0
36 -33 89 -59 98 -24 7 -27 21 -7 32 20 11 46 63 46 91 0 41 -30 90 -66 107
-27 12 -63 16 -169 14 l-135 -1 0 -235z m245 92 c0 -30 0 -30 -62 -33 l-63 -3
0 36 0 36 63 -3 c62 -3 62 -3 62 -33z m17 -160 c18 -40 -3 -55 -78 -55 l-64 0
0 40 0 40 65 0 c60 0 66 -2 77 -25z"/>
<path d="M5320 3205 l0 -235 165 0 165 0 0 55 0 55 -105 0 -105 0 0 180 0 180
-60 0 -60 0 0 -235z"/>
<path d="M6457 3426 c-122 -45 -183 -172 -145 -300 16 -54 93 -131 144 -145
86 -24 160 -9 224 46 72 62 98 156 69 254 -35 114 -180 187 -292 145z m149
-130 c30 -30 34 -40 34 -86 0 -59 -21 -103 -57 -119 -75 -34 -151 10 -160 92
-10 86 35 147 109 147 32 0 47 -7 74 -34z"/>
<path d="M7529 3425 c-66 -21 -125 -83 -145 -152 -55 -188 128 -366 291 -283
22 11 41 20 42 20 2 0 3 -9 3 -20 0 -17 7 -20 45 -20 l45 0 0 125 0 125 -90 0
-90 0 0 -44 0 -45 43 -3 42 -3 -35 -22 c-102 -66 -212 20 -179 139 12 47 61
88 102 88 34 0 97 -33 97 -50 0 -6 20 3 45 21 51 37 54 47 23 76 -60 55 -157
74 -239 48z"/>
</g>
</svg>
